<?xml version="1.0" encoding="UTF-8" ?>
<!DOCTYPE svg PUBLIC "-//W3C//DTD SVG 1.1//EN" "http://www.w3.org/Graphics/SVG/1.1/DTD/svg11.dtd">
<svg width="323pt" height="264pt" viewBox="0 0 323 264" version="1.1" xmlns="http://www.w3.org/2000/svg">
<g id="#3168adff">
<path fill="#3168ad" opacity="1.00" d=" M 158.65 12.95 C 158.62 24.07 158.74 35.18 158.63 46.30 C 156.76 47.62 154.90 48.94 153.04 50.27 C 153.02 92.91 153.15 135.55 153.09 178.19 C 137.49 164.33 122.57 149.34 111.34 131.63 C 102.38 117.67 96.08 102.08 92.44 85.91 C 88.57 68.40 87.12 50.43 86.86 32.53 C 95.04 34.93 103.00 38.33 111.53 39.27 C 121.28 40.73 131.54 38.32 139.61 32.65 C 147.27 27.50 152.93 20.06 158.65 12.95 M 106.80 59.08 C 108.76 85.56 117.97 111.92 134.72 132.71 C 134.92 107.49 134.80 82.26 134.78 57.04 C 125.45 57.72 116.10 58.09 106.80 59.08 Z" />
</g>
<g id="#4a9741ff">
<path fill="#4a9741" opacity="1.00" d=" M 163.91 13.27 C 170.46 20.95 176.66 29.30 185.58 34.41 C 193.46 39.05 203.05 40.75 212.04 39.02 C 220.27 37.56 228.23 34.94 236.18 32.39 C 235.50 41.33 234.85 50.27 234.06 59.20 C 228.07 59.28 222.07 59.56 216.09 59.06 C 206.77 57.93 197.38 57.98 188.05 57.01 C 188.03 57.70 187.99 59.09 187.97 59.78 C 182.00 60.35 176.00 60.37 170.01 60.16 C 169.92 56.86 169.94 53.57 169.96 50.28 C 167.93 48.81 165.88 47.36 163.84 45.89 C 163.93 35.01 163.83 24.14 163.91 13.27 Z" />
<path fill="#4a9741" opacity="1.00" d=" M 169.93 122.91 C 175.68 126.01 181.78 128.53 187.23 132.14 C 187.12 134.11 186.54 136.01 185.91 137.87 C 181.99 148.79 178.37 159.86 173.39 170.36 C 172.38 172.38 171.66 174.54 171.45 176.80 C 170.92 177.27 170.41 177.75 169.92 178.26 C 169.90 159.81 169.87 141.36 169.93 122.91 Z" />
</g>
<g id="#67c553ff">
<path fill="#67c553" opacity="1.00" d=" M 216.09 59.06 C 222.07 59.56 228.07 59.28 234.06 59.20 C 233.78 64.90 232.91 70.56 232.92 76.27 C 226.48 76.30 220.05 76.27 213.61 76.29 C 214.31 70.53 215.07 64.78 216.09 59.06 Z" />
<path fill="#67c553" opacity="1.00" d=" M 170.01 60.16 C 176.00 60.37 182.00 60.35 187.97 59.78 C 188.01 83.96 187.99 108.14 188.01 132.32 C 195.24 123.37 201.35 113.43 205.26 102.57 C 201.85 102.52 198.44 102.53 195.04 102.58 C 194.85 96.38 194.99 90.18 194.95 83.98 C 206.81 83.98 218.67 83.98 230.53 83.98 C 227.19 100.57 220.72 116.50 211.80 130.87 C 201.01 148.28 186.92 163.45 171.45 176.80 C 171.66 174.54 172.38 172.38 173.39 170.36 C 178.37 159.86 181.99 148.79 185.91 137.87 C 186.54 136.01 187.12 134.11 187.23 132.14 C 181.78 128.53 175.68 126.01 169.93 122.91 C 170.00 101.99 169.88 81.08 170.01 60.16 Z" />
</g>
<g id="#161717ff">
<path fill="#161717" opacity="1.00" d=" M 50.97 213.99 C 58.32 210.81 67.12 211.84 73.96 215.82 C 73.94 217.65 73.93 219.49 73.94 221.32 C 70.67 218.97 67.05 216.87 62.94 216.57 C 58.04 216.11 52.28 217.08 49.29 221.40 C 46.46 225.62 46.20 231.02 46.74 235.93 C 47.20 240.22 49.26 244.75 53.39 246.62 C 58.51 248.94 64.48 248.33 69.63 246.44 C 69.75 242.88 69.74 239.31 69.69 235.75 C 66.81 235.74 63.93 235.73 61.04 235.69 C 61.09 234.25 61.13 232.81 61.17 231.38 C 65.75 231.41 70.33 231.41 74.91 231.38 C 74.97 236.95 74.87 242.52 74.99 248.09 C 67.34 253.07 56.62 254.23 48.68 249.29 C 42.05 244.99 40.24 236.33 41.11 228.95 C 41.58 222.73 45.12 216.56 50.97 213.99 Z" />
<path fill="#161717" opacity="1.00" d=" M 266.42 212.55 C 271.75 211.51 277.76 212.31 282.02 215.91 C 286.17 219.32 288.29 224.66 288.60 229.94 C 289.07 236.07 287.83 242.79 283.42 247.36 C 275.62 255.63 259.62 253.65 254.89 242.99 C 251.26 234.76 251.68 223.85 258.09 217.07 C 260.32 214.75 263.28 213.20 266.42 212.55 M 266.18 217.19 C 261.41 219.08 258.88 224.26 258.41 229.14 C 257.89 234.48 258.47 240.50 262.27 244.62 C 267.06 250.08 277.17 249.12 280.62 242.61 C 284.00 236.47 284.02 228.43 280.79 222.23 C 278.16 217.01 271.44 215.19 266.18 217.19 Z" />
<path fill="#161717" opacity="1.00" d=" M 5.23 212.83 C 13.56 213.03 22.57 211.69 30.21 215.80 C 35.64 218.70 37.86 225.11 37.94 230.95 C 38.27 237.43 36.58 245.02 30.53 248.50 C 22.86 252.91 13.68 251.38 5.25 251.67 C 5.23 238.72 5.27 225.77 5.23 212.83 M 10.54 217.09 C 10.47 227.20 10.54 237.31 10.50 247.42 C 16.01 247.27 22.05 247.97 27.00 245.02 C 31.10 242.53 32.30 237.40 32.38 232.93 C 32.48 228.16 31.59 222.55 27.31 219.69 C 22.35 216.50 16.15 217.28 10.54 217.09 Z" />
<path fill="#161717" opacity="1.00" d=" M 90.75 212.79 C 92.53 212.79 94.30 212.80 96.08 212.81 C 98.88 223.64 101.28 234.58 104.37 245.33 C 107.08 234.61 109.58 223.84 112.44 213.16 C 114.27 212.49 116.31 212.85 118.23 212.70 C 121.22 223.53 123.55 234.54 126.60 245.36 C 129.40 234.52 131.94 223.61 134.78 212.78 C 136.54 212.78 138.31 212.79 140.07 212.80 C 136.81 225.74 133.54 238.68 130.31 251.63 C 128.07 251.65 125.83 251.65 123.60 251.65 C 120.98 240.54 118.23 229.46 115.53 218.37 C 112.35 229.25 110.15 240.41 107.14 251.34 C 105.05 252.05 102.70 251.55 100.51 251.65 C 97.25 238.70 94.01 225.75 90.75 212.79 Z" />
<path fill="#161717" opacity="1.00" d=" M 147.11 212.79 C 149.10 212.80 151.08 212.81 153.07 212.82 C 158.03 225.77 162.97 238.72 167.91 251.68 C 166.09 251.67 164.27 251.66 162.45 251.66 C 161.26 248.35 160.07 245.05 158.91 241.73 C 153.04 241.75 147.16 241.68 141.28 241.78 C 140.16 245.05 139.00 248.29 137.91 251.57 C 136.01 251.63 134.11 251.68 132.21 251.73 C 137.20 238.76 142.17 225.78 147.11 212.79 M 142.95 237.28 C 147.71 237.38 152.48 237.32 157.25 237.34 C 154.94 231.11 152.65 224.87 150.31 218.65 C 147.09 224.51 145.54 231.12 142.95 237.28 Z" />
<path fill="#161717" opacity="1.00" d=" M 176.59 212.79 C 182.78 213.05 189.18 212.07 195.21 213.84 C 203.73 216.35 204.13 230.90 195.37 233.38 C 201.43 237.77 203.31 245.47 206.91 251.67 C 205.03 251.67 203.14 251.67 201.26 251.67 C 198.82 247.12 196.97 242.22 193.99 238.00 C 191.17 234.24 185.96 235.49 181.92 235.24 C 181.83 240.69 181.84 246.15 181.91 251.61 C 180.13 251.64 178.36 251.67 176.58 251.70 C 176.61 238.73 176.60 225.76 176.59 212.79 M 181.86 217.13 C 181.87 221.73 181.87 226.33 181.86 230.93 C 185.32 230.83 188.90 231.34 192.27 230.33 C 197.56 228.54 197.56 219.46 192.22 217.74 C 188.86 216.75 185.30 217.22 181.86 217.13 Z" />
<path fill="#161717" opacity="1.00" d=" M 209.98 212.80 C 216.30 213.08 222.87 211.98 228.99 213.99 C 237.21 216.93 237.21 230.56 228.94 233.55 C 234.83 237.95 236.83 245.48 240.20 251.70 C 238.32 251.67 236.45 251.64 234.59 251.61 C 232.13 246.97 230.29 241.95 227.15 237.72 C 224.24 234.24 219.21 235.50 215.25 235.26 C 215.26 240.69 215.20 246.12 215.32 251.54 C 213.56 251.62 211.80 251.68 210.04 251.75 C 209.91 238.76 210.01 225.78 209.98 212.80 M 215.24 217.14 C 215.26 221.73 215.26 226.33 215.24 230.92 C 218.67 230.86 222.21 231.30 225.56 230.36 C 231.14 228.60 230.91 218.89 225.11 217.58 C 221.88 216.83 218.52 217.19 215.24 217.14 Z" />
<path fill="#161717" opacity="1.00" d=" M 243.34 212.88 C 245.11 212.87 246.89 212.88 248.67 212.89 C 248.59 225.82 248.66 238.75 248.63 251.69 C 246.87 251.68 245.12 251.68 243.37 251.68 C 243.34 238.75 243.40 225.82 243.34 212.88 Z" />
<path fill="#161717" opacity="1.00" d=" M 294.86 212.80 C 301.22 213.06 307.85 211.97 314.00 214.05 C 322.02 217.06 322.07 230.38 313.99 233.45 C 318.31 237.03 320.47 242.32 323.00 247.17 L 323.00 251.67 C 321.81 251.65 320.63 251.63 319.45 251.61 C 317.07 247.03 315.22 242.11 312.17 237.91 C 309.31 234.24 304.15 235.50 300.13 235.23 C 300.12 240.71 300.14 246.19 300.09 251.67 C 298.36 251.67 296.63 251.68 294.90 251.69 C 294.80 238.72 294.89 225.76 294.86 212.80 M 300.13 217.13 C 300.13 221.73 300.13 226.33 300.12 230.93 C 303.44 230.86 306.85 231.26 310.12 230.48 C 315.93 228.98 315.94 219.05 310.09 217.61 C 306.84 216.81 303.44 217.20 300.13 217.13 Z" />
</g>
</svg>
