<?xml version="1.0" encoding="UTF-8" ?>
<!DOCTYPE svg PUBLIC "-//W3C//DTD SVG 1.1//EN" "http://www.w3.org/Graphics/SVG/1.1/DTD/svg11.dtd">
<svg width="318pt" height="241pt" viewBox="0 0 318 241" version="1.1" xmlns="http://www.w3.org/2000/svg">
<g id="#3168adff">
<path fill="#3168ad" opacity="1.00" d=" M 137.87 27.77 C 144.94 22.65 150.27 15.63 155.70 8.89 C 155.58 20.01 155.75 31.13 155.65 42.25 C 153.78 43.61 151.90 44.94 150.03 46.30 C 150.03 88.94 150.14 131.57 150.09 174.20 C 134.15 160.03 118.92 144.67 107.61 126.46 C 92.53 102.81 86.18 74.69 84.69 46.96 C 84.05 40.84 83.91 34.70 83.87 28.55 C 92.06 30.92 100.02 34.35 108.57 35.27 C 118.82 36.83 129.60 34.01 137.87 27.77 M 103.82 55.08 C 105.73 81.58 115.01 107.92 131.71 128.74 C 131.92 103.51 131.80 78.28 131.77 53.05 C 122.45 53.73 113.11 54.08 103.82 55.08 Z" />
</g>
<g id="#4a9741ff">
<path fill="#4a9741" opacity="1.00" d=" M 160.88 9.19 C 166.42 15.62 171.48 22.62 178.44 27.63 C 186.99 34.27 198.41 37.09 209.04 35.02 C 217.27 33.56 225.22 30.93 233.16 28.40 C 232.54 37.69 231.71 46.96 231.02 56.25 C 225.03 56.44 218.88 57.12 213.05 55.28 C 209.14 54.26 205.06 54.31 201.05 54.10 C 195.69 54.08 190.39 53.22 185.04 53.02 C 185.03 53.75 185.00 55.20 184.98 55.93 C 178.98 57.16 172.97 55.55 166.95 55.50 C 166.94 52.44 166.95 49.37 166.97 46.30 C 164.96 44.81 162.91 43.38 160.87 41.92 C 160.88 31.01 160.89 20.10 160.88 9.19 Z" />
<path fill="#4a9741" opacity="1.00" d=" M 166.93 118.84 C 172.82 121.96 178.75 124.98 184.63 128.12 C 179.74 143.25 174.75 158.53 167.25 172.61 C 166.83 169.75 166.86 166.87 166.89 164.00 C 166.94 148.94 166.85 133.89 166.93 118.84 Z" />
</g>
<g id="#67c553ff">
<path fill="#67c553" opacity="1.00" d=" M 166.95 55.50 C 172.97 55.55 178.98 57.16 184.98 55.93 C 185.00 80.07 185.00 104.22 185.00 128.37 C 192.18 119.37 198.40 109.47 202.23 98.56 C 198.79 98.56 195.35 98.54 191.91 98.48 C 191.99 92.31 191.93 86.15 191.95 79.98 C 203.80 79.98 215.66 79.98 227.51 79.99 C 220.23 117.81 195.83 149.99 166.75 174.20 C 166.87 173.80 167.12 173.01 167.25 172.61 C 174.75 158.53 179.74 143.25 184.63 128.12 C 178.75 124.98 172.82 121.96 166.93 118.84 C 166.98 97.72 166.94 76.61 166.95 55.50 Z" />
<path fill="#67c553" opacity="1.00" d=" M 213.05 55.28 C 218.88 57.12 225.03 56.44 231.02 56.25 C 230.66 61.59 229.92 66.90 229.93 72.26 C 223.49 72.30 217.06 72.27 210.63 72.28 C 211.28 66.59 212.05 60.91 213.05 55.28 Z" />
</g>
<g id="#ffffffff">
<path fill="#ffffff" opacity="1.00" d=" M 56.09 191.09 C 62.40 186.45 71.08 187.50 77.63 191.10 C 77.60 193.13 77.61 195.15 77.64 197.18 C 73.63 193.57 68.06 190.81 62.59 192.40 C 57.54 193.80 54.79 199.15 54.48 204.07 C 54.02 209.28 54.87 215.31 59.16 218.82 C 63.16 221.93 68.62 221.29 73.16 219.90 C 73.12 216.60 73.13 213.30 73.13 210.00 C 70.47 210.00 67.80 210.00 65.13 210.00 C 65.13 208.66 65.13 207.33 65.13 206.00 C 69.33 206.00 73.53 206.00 77.74 206.00 C 77.75 211.29 77.69 216.58 77.77 221.86 C 72.62 224.35 66.65 226.09 60.98 224.36 C 55.57 223.15 51.47 218.46 50.33 213.14 C 48.48 205.57 49.47 196.11 56.09 191.09 Z" />
<path fill="#ffffff" opacity="1.00" d=" M 257.42 188.14 C 262.61 187.33 268.46 189.07 271.66 193.42 C 274.80 197.53 275.58 202.94 275.40 207.98 C 275.13 212.28 274.12 216.81 271.20 220.12 C 267.31 224.83 260.30 226.15 254.68 224.16 C 250.04 222.77 246.70 218.54 245.53 213.95 C 243.76 207.36 244.14 199.84 247.86 193.97 C 249.98 190.69 253.62 188.74 257.42 188.14 M 256.43 192.51 C 251.74 194.13 249.75 199.45 249.46 204.02 C 249.19 208.83 249.42 214.33 252.91 218.03 C 256.46 222.10 263.53 222.04 267.10 218.02 C 270.07 214.81 270.66 210.19 270.61 205.99 C 270.54 201.88 269.70 197.36 266.56 194.44 C 263.93 191.87 259.82 191.38 256.43 192.51 Z" />
<path fill="#ffffff" opacity="1.00" d=" M 18.53 189.00 C 24.97 189.23 31.88 188.04 37.83 191.13 C 48.98 197.06 48.79 215.77 37.87 221.84 C 31.92 225.02 24.98 223.74 18.53 224.00 C 18.53 212.33 18.53 200.67 18.53 189.00 M 23.13 193.00 C 23.14 202.00 23.14 211.00 23.13 220.00 C 27.64 220.03 32.64 220.41 36.49 217.61 C 42.07 213.48 42.27 205.16 39.77 199.25 C 36.74 193.15 29.11 192.59 23.13 193.00 Z" />
<path fill="#ffffff" opacity="1.00" d=" M 95.54 189.00 C 97.13 189.00 98.73 189.00 100.33 189.00 C 102.84 198.65 104.93 208.41 107.48 218.06 C 109.69 208.35 112.00 198.67 114.44 189.02 C 115.98 189.00 117.53 188.99 119.07 189.00 C 121.50 198.73 123.74 208.51 126.13 218.25 C 128.50 208.51 130.81 198.76 133.06 189.00 C 134.60 189.00 136.14 189.00 137.67 189.01 C 134.77 200.68 131.83 212.33 128.94 224.00 C 127.18 224.00 125.43 224.00 123.67 224.00 C 121.19 214.35 119.04 204.61 116.56 194.95 C 114.29 204.64 111.94 214.31 109.71 224.01 C 107.99 224.00 106.27 223.99 104.56 223.96 C 101.42 212.34 98.70 200.61 95.54 189.00 Z" />
<path fill="#ffffff" opacity="1.00" d=" M 148.47 189.02 C 150.41 189.00 152.34 189.00 154.28 188.99 C 158.18 200.67 162.07 212.35 166.05 224.01 C 164.41 224.00 162.77 223.99 161.13 223.97 C 160.06 220.64 158.98 217.32 157.90 214.00 C 153.48 214.00 149.06 213.99 144.63 214.01 C 143.61 217.30 142.50 220.56 141.54 223.87 C 139.95 223.93 138.36 223.99 136.77 224.06 C 140.56 212.34 144.65 200.73 148.47 189.02 M 145.97 210.00 C 149.52 210.00 153.07 210.00 156.62 210.00 C 154.81 204.61 153.08 199.18 151.27 193.79 C 149.45 199.18 147.76 204.60 145.97 210.00 Z" />
<path fill="#ffffff" opacity="1.00" d=" M 169.53 189.00 C 175.98 189.52 183.64 187.26 188.96 192.04 C 193.99 197.23 190.95 206.75 184.14 208.70 C 188.31 213.76 192.33 218.96 196.57 223.98 C 194.55 223.98 192.53 224.00 190.52 223.98 C 186.86 219.34 183.19 214.70 179.57 210.03 C 177.76 210.00 175.94 210.00 174.13 209.99 C 174.13 214.66 174.13 219.33 174.13 224.00 C 172.60 224.00 171.06 224.00 169.53 224.00 C 169.53 212.33 169.53 200.67 169.53 189.00 M 174.13 193.00 C 174.13 197.34 174.13 201.67 174.13 206.00 C 176.69 205.93 179.30 206.27 181.82 205.68 C 186.90 204.68 188.45 196.59 183.94 193.95 C 180.91 192.39 177.39 193.16 174.13 193.00 Z" />
<path fill="#ffffff" opacity="1.00" d=" M 198.53 189.00 C 204.99 189.52 212.67 187.25 217.98 192.07 C 222.98 197.26 219.94 206.76 213.13 208.70 C 217.31 213.76 221.33 218.96 225.57 223.98 C 223.55 223.98 221.53 224.00 219.52 223.98 C 215.86 219.34 212.19 214.71 208.58 210.03 C 206.76 210.00 204.95 210.00 203.13 209.99 C 203.13 214.66 203.13 219.33 203.13 224.00 C 201.60 224.00 200.06 224.00 198.53 224.00 C 198.53 212.33 198.53 200.67 198.53 189.00 M 203.13 193.00 C 203.13 197.34 203.13 201.67 203.13 206.00 C 206.59 205.83 210.64 206.77 213.50 204.28 C 216.23 201.60 216.55 196.02 212.93 193.94 C 209.90 192.40 206.39 193.16 203.13 193.00 Z" />
<path fill="#ffffff" opacity="1.00" d=" M 227.13 189.00 C 231.67 189.00 236.20 189.00 240.74 189.00 C 240.73 190.33 240.73 191.66 240.74 192.99 C 239.24 193.00 237.75 193.00 236.26 193.01 C 236.27 202.00 236.27 211.00 236.26 219.99 C 237.75 219.99 239.24 220.00 240.74 220.01 C 240.73 221.33 240.73 222.66 240.74 224.00 C 236.20 224.00 231.67 224.00 227.13 224.00 C 227.13 222.66 227.13 221.33 227.13 220.01 C 228.62 220.00 230.11 219.99 231.60 219.99 C 231.60 211.00 231.60 202.00 231.60 193.01 C 230.11 193.00 228.62 193.00 227.13 193.00 C 227.13 191.66 227.13 190.33 227.13 189.00 Z" />
<path fill="#ffffff" opacity="1.00" d=" M 280.53 189.00 C 286.97 189.52 294.63 187.26 299.95 192.04 C 305.00 197.22 301.95 206.75 295.14 208.70 C 299.31 213.76 303.33 218.96 307.57 223.98 C 305.55 223.98 303.55 224.00 301.54 223.99 C 297.86 219.36 294.20 214.71 290.59 210.03 C 288.76 210.00 286.95 210.00 285.13 209.99 C 285.13 214.66 285.13 219.33 285.13 224.00 C 283.60 224.00 282.06 224.00 280.53 224.00 C 280.53 212.33 280.53 200.67 280.53 189.00 M 285.13 193.01 C 285.13 197.34 285.13 201.67 285.13 206.00 C 288.59 205.84 292.64 206.77 295.50 204.28 C 298.23 201.60 298.55 196.02 294.93 193.94 C 291.90 192.40 288.39 193.16 285.13 193.01 Z" />
</g>
</svg>
